<?xml version="1.0" encoding="UTF-8"?>
<svg id="Layer_1" data-name="Layer 1" xmlns="http://www.w3.org/2000/svg" viewBox="0 0 1460.006 671.885">
  <path d="M83.019,427.49l-33.068,80.892h-4.955l-32.964-80.892v80.892H0v-97.172h17.291l30.233,74.016,30.237-74.016h17.392v97.172h-12.134v-80.892Z"/>
  <path d="M185.954,486.844h-49.243l-8.595,21.538h-13.347l39.03-97.172h14.965l39.233,97.172h-13.448l-8.595-21.538ZM140.25,476.025h42.064l-20.931-53.996-21.133,53.996Z"/>
  <path d="M257.442,469.756h-19.414v38.626h-12.033v-97.172h39.03c17.796,0,30.436,11.325,30.436,29.222s-11.932,27.099-25.178,28.312l26.189,39.637h-14.257l-24.773-38.626h0ZM263.509,422.029h-25.481v37.109h25.481c11.527,0,19.414-7.685,19.414-18.605s-7.887-18.504-19.414-18.504Z"/>
  <path d="M341.166,422.029h-30.739v-10.819h73.713v10.819h-30.941v86.353h-12.033v-86.353Z"/>
  <path d="M431.158,422.029h-30.739v-10.819h73.713v10.819h-30.941v86.353h-12.033v-86.353Z"/>
  <path d="M510.129,411.21h-12.134v97.172h12.134v-97.172Z"/>
  <path d="M646.332,486.844h-49.243l-8.595,21.538h-13.448l39.03-97.172h14.965l39.233,97.172h-13.448l-8.595-21.538h.101ZM600.628,476.025h42.064l-21.032-53.996-21.133,53.996h.101Z"/>
  <path d="M756.85,463.79h-56.827v44.592h-12.033v-97.172h12.033v41.761h56.827v-41.761h12.134v97.172h-12.134v-44.592Z"/>
  <path d="M819.744,422.029h-30.739v-10.819h73.713v10.819h-30.84v86.353h-12.134v-86.353Z"/>
  <path d="M897.805,411.21h-12.134v97.172h12.134v-97.172Z"/>
  <path d="M928.746,485.528c6.37,7.179,16.886,13.853,30.537,13.853,17.291,0,22.852-9.303,22.852-16.785,0-11.628-11.83-14.864-24.571-18.403-15.572-4.045-32.964-8.494-32.964-27.503,0-15.976,14.257-26.998,33.368-26.998,14.864,0,26.391,4.955,34.48,13.549l-7.28,8.898c-7.28-7.988-17.493-11.628-28.11-11.628-11.628,0-19.92,6.269-19.92,15.471,0,9.808,11.224,12.639,23.56,15.976,15.875,4.247,33.975,9.201,33.975,29.526,0,14.156-9.606,28.514-35.795,28.514-16.886,0-29.323-6.37-37.312-15.47l7.179-9.201v.202h.001Z"/>
  <path d="M1079.509,486.844h-49.243l-8.595,21.538h-13.448l39.03-97.172h14.965l39.233,97.172h-13.448l-8.595-21.538h.101ZM1033.805,476.025h42.064l-21.032-53.996-21.133,53.996h.101Z"/>
  <path d="M1183.152,486.844h-49.243l-8.595,21.538h-13.448l39.03-97.172h14.965l39.233,97.172h-13.448l-8.595-21.538h.101ZM1137.448,476.025h42.064l-20.931-53.996-21.133,53.996Z"/>
  <path d="M1256.259,469.756h-19.414v38.626h-12.033v-97.172h39.03c17.796,0,30.436,11.325,30.436,29.222s-11.932,27.099-25.178,28.312l26.189,39.637h-14.257l-24.773-38.626h0ZM1262.326,422.029h-25.481v37.109h25.481c11.527,0,19.414-7.685,19.414-18.605s-7.887-18.504-19.414-18.504Z"/>
  <path d="M1333.915,411.21h-12.134v97.172h12.134v-97.172Z"/>
  <path d="M0,572.995h39.03c19.515,0,30.436,13.347,30.436,29.222s-11.224,29.323-30.436,29.323H12.033v38.626H0v-97.172h0ZM37.615,583.814H12.134v37.008h25.481c11.527,0,19.414-7.584,19.414-18.504s-7.887-18.504-19.414-18.504h0Z"/>
  <path d="M86.659,572.995h63.601v10.819h-51.569v31.245h50.558v10.819h-50.558v33.469h51.569v10.819h-63.601v-97.172h0Z"/>
  <path d="M237.624,648.629h-49.243l-8.595,21.538h-13.347l39.03-97.172h14.965l39.233,97.172h-13.448l-8.595-21.538ZM191.92,637.81h42.064l-20.931-53.996-21.133,53.996Z"/>
  <path d="M268.666,621.629c0-29.829,21.942-50.254,49.546-50.254,17.594,0,29.526,8.291,37.312,19.212l-10.213,5.662c-5.561-8.19-15.572-14.156-27.099-14.156-20.83,0-37.008,16.28-37.008,39.435s16.178,39.435,37.008,39.435c11.527,0,21.538-5.865,27.099-14.156l10.314,5.662c-8.19,11.123-19.819,19.212-37.413,19.212-27.503,0-49.546-20.425-49.546-50.254"/>
  <path d="M377.972,572.995h63.703v10.819h-51.569v31.245h50.457v10.819h-50.457v33.469h51.569v10.819h-63.703v-97.172h0Z"/>
  <path d="M512.354,572.995h63.703v10.819h-51.569v31.245h50.558v10.819h-50.558v44.288h-12.134v-97.172h0Z"/>
  <path d="M641.781,571.375c28.717,0,48.232,21.538,48.232,50.254s-19.515,50.254-48.232,50.254-48.232-21.538-48.232-50.254,19.414-50.254,48.232-50.254ZM641.781,582.194c-21.841,0-35.694,16.785-35.694,39.435s13.853,39.435,35.694,39.435,35.694-16.886,35.694-39.435-13.954-39.435-35.694-39.435Z"/>
  <path d="M714.584,572.995h12.033v59.152c0,17.796,9.606,29.02,27.503,29.02s27.503-11.224,27.503-29.02v-59.152h12.134v59.254c0,24.167-13.246,39.637-39.637,39.637s-39.637-15.572-39.637-39.435v-59.456h.101Z"/>
  <path d="M835.619,591.802v78.364h-12.134v-97.172h12.437l55.917,76.746v-76.746h12.033v97.172h-11.628l-56.625-78.364Z"/>
  <path d="M933.6,572.995h33.166c30.132,0,49.85,21.133,49.85,48.636s-19.717,48.535-49.85,48.535h-33.166v-97.172h0ZM966.766,659.347c23.56,0,37.312-16.886,37.312-37.716s-13.246-37.918-37.312-37.918h-21.133v75.634h21.133Z"/>
  <path d="M1098.317,648.629h-49.243l-8.595,21.538h-13.448l39.03-97.172h14.965l39.233,97.172h-13.448l-8.595-21.538h.101ZM1052.511,637.81h42.064l-21.032-53.996-21.133,53.996h.101Z"/>
  <path d="M1155.244,583.814h-30.739v-10.819h73.713v10.819h-30.941v86.352h-12.033v-86.352Z"/>
  <path d="M1234.418,572.995h-12.134v97.172h12.134v-97.172Z"/>
  <path d="M1308.434,571.375c28.717,0,48.232,21.538,48.232,50.254s-19.515,50.254-48.232,50.254-48.232-21.538-48.232-50.254,19.414-50.254,48.232-50.254ZM1308.434,582.194c-21.841,0-35.694,16.785-35.694,39.435s13.853,39.435,35.694,39.435,35.694-16.886,35.694-39.435-13.954-39.435-35.694-39.435Z"/>
  <path d="M1391.652,591.802v78.364h-12.033v-97.172h12.336l55.917,76.746v-76.746h12.134v97.172h-11.628l-56.726-78.364Z"/>
</svg>