<?xml version="1.0" encoding="UTF-8"?><svg id="Layer_1" xmlns="http://www.w3.org/2000/svg" viewBox="0 0 286.96 181.49"><defs><style>.cls-1{fill:#da9100;}</style></defs><path d="M63.72,102.88l-4.09,10.01h-.61l-4.08-10.01v10.01h-1.5v-12.03h2.15l3.73,9.16,3.75-9.16h2.15v12.03h-1.5v-10.01Z"/><path d="M76.47,110.22h-6.09l-1.06,2.67h-1.66l4.83-12.03h1.86l4.85,12.03h-1.66l-1.06-2.67ZM70.81,108.88h5.21l-2.6-6.69-2.61,6.69Z"/><path d="M85.32,108.11h-2.4v4.78h-1.5v-12.03h4.83c2.2,0,3.77,1.41,3.77,3.62s-1.48,3.35-3.12,3.5l3.25,4.9h-1.77l-3.06-4.78ZM86.07,102.19h-3.16v4.6h3.16c1.42,0,2.4-.96,2.4-2.31s-.97-2.29-2.4-2.29Z"/><path d="M95.68,102.19h-3.8v-1.33h9.12v1.33h-3.82v10.69h-1.5v-10.69Z"/><path d="M106.82,102.19h-3.8v-1.33h9.12v1.33h-3.82v10.69h-1.5v-10.69Z"/><path d="M115.09,100.86h1.5v12.03h-1.5v-12.03Z"/><path d="M133.46,110.22h-6.09l-1.06,2.67h-1.66l4.83-12.03h1.86l4.85,12.03h-1.66l-1.06-2.67ZM127.8,108.88h5.21l-2.6-6.69-2.61,6.69Z"/><path d="M147.14,107.37h-7.03v5.52h-1.5v-12.03h1.5v5.18h7.03v-5.18h1.5v12.03h-1.5v-5.52Z"/><path d="M154.93,102.19h-3.8v-1.33h9.12v1.33h-3.82v10.69h-1.5v-10.69Z"/><path d="M163.09,100.86h1.5v12.03h-1.5v-12.03Z"/><path d="M168.43,110.05c.79.88,2.09,1.71,3.79,1.71,2.15,0,2.83-1.15,2.83-2.07,0-1.44-1.46-1.84-3.05-2.27-1.93-.51-4.08-1.05-4.08-3.41,0-1.98,1.77-3.34,4.13-3.34,1.84,0,3.26.61,4.27,1.68l-.9,1.1c-.9-.99-2.16-1.44-3.48-1.44-1.44,0-2.47.78-2.47,1.91,0,1.21,1.39,1.57,2.92,1.98,1.97.52,4.2,1.14,4.2,3.66,0,1.75-1.19,3.53-4.43,3.53-2.09,0-3.62-.79-4.62-1.91l.88-1.14Z"/><path d="M187.09,110.22h-6.09l-1.06,2.67h-1.66l4.83-12.03h1.86l4.85,12.03h-1.66l-1.06-2.67ZM181.43,108.88h5.21l-2.6-6.69-2.61,6.69Z"/><path d="M199.92,110.22h-6.09l-1.06,2.67h-1.66l4.83-12.03h1.86l4.85,12.03h-1.66l-1.06-2.67ZM194.26,108.88h5.21l-2.6-6.69-2.62,6.69Z"/><path d="M208.97,108.11h-2.4v4.78h-1.5v-12.03h4.83c2.2,0,3.77,1.41,3.77,3.62s-1.48,3.35-3.12,3.5l3.25,4.9h-1.77l-3.06-4.78ZM209.73,102.19h-3.16v4.6h3.16c1.42,0,2.4-.96,2.4-2.31s-.97-2.29-2.4-2.29Z"/><path d="M217.08,100.86h1.5v12.03h-1.5v-12.03Z"/><path d="M53.45,120.89h4.83c2.42,0,3.77,1.66,3.77,3.62s-1.39,3.62-3.77,3.62h-3.34v4.78h-1.5v-12.03ZM58.1,122.22h-3.16v4.58h3.16c1.42,0,2.4-.94,2.4-2.29s-.97-2.29-2.4-2.29Z"/><path d="M64.17,120.89h7.88v1.33h-6.38v3.88h6.26v1.33h-6.26v4.15h6.38v1.33h-7.88v-12.03Z"/><path d="M82.87,130.24h-6.09l-1.06,2.67h-1.66l4.83-12.03h1.86l4.85,12.03h-1.66l-1.06-2.67ZM77.2,128.91h5.21l-2.6-6.69-2.62,6.69Z"/><path d="M86.7,126.91c0-3.7,2.72-6.22,6.13-6.22,2.18,0,3.66,1.03,4.62,2.38l-1.26.7c-.68-1.01-1.93-1.75-3.35-1.75-2.58,0-4.58,2.02-4.58,4.89s2,4.89,4.58,4.89c1.42,0,2.67-.72,3.35-1.75l1.28.7c-1.01,1.37-2.45,2.38-4.63,2.38-3.41,0-6.13-2.52-6.13-6.22Z"/><path d="M100.24,120.89h7.88v1.33h-6.38v3.88h6.26v1.33h-6.26v4.15h6.38v1.33h-7.88v-12.03Z"/><path d="M116.88,120.89h7.88v1.33h-6.38v3.88h6.26v1.33h-6.26v5.48h-1.5v-12.03Z"/><path d="M132.9,120.69c3.55,0,5.97,2.67,5.97,6.22s-2.42,6.22-5.97,6.22-5.97-2.67-5.97-6.22,2.4-6.22,5.97-6.22ZM132.9,122.02c-2.7,0-4.42,2.07-4.42,4.89s1.71,4.89,4.42,4.89,4.42-2.09,4.42-4.89-1.73-4.89-4.42-4.89Z"/><path d="M141.91,120.89h1.5v7.32c0,2.2,1.19,3.59,3.41,3.59s3.41-1.39,3.41-3.59v-7.32h1.5v7.34c0,2.99-1.64,4.9-4.9,4.9s-4.9-1.93-4.9-4.89v-7.36Z"/><path d="M156.89,123.21v9.7h-1.5v-12.03h1.53l6.92,9.5v-9.5h1.5v12.03h-1.44l-7.01-9.7Z"/><path d="M169.03,120.89h4.11c3.73,0,6.17,2.61,6.17,6.02s-2.43,6-6.17,6h-4.11v-12.03ZM173.14,131.58c2.92,0,4.62-2.09,4.62-4.67s-1.64-4.69-4.62-4.69h-2.62v9.36h2.62Z"/><path d="M189.41,130.24h-6.09l-1.06,2.67h-1.66l4.83-12.03h1.86l4.85,12.03h-1.66l-1.06-2.67ZM183.75,128.91h5.21l-2.6-6.69-2.61,6.69Z"/><path d="M196.46,122.22h-3.8v-1.33h9.12v1.33h-3.82v10.69h-1.5v-10.69Z"/><path d="M204.77,120.89h1.5v12.03h-1.5v-12.03Z"/><path d="M215.42,120.69c3.55,0,5.97,2.67,5.97,6.22s-2.42,6.22-5.97,6.22-5.97-2.67-5.97-6.22,2.4-6.22,5.97-6.22ZM215.42,122.02c-2.71,0-4.42,2.07-4.42,4.89s1.71,4.89,4.42,4.89,4.42-2.09,4.42-4.89-1.73-4.89-4.42-4.89Z"/><path d="M225.73,123.21v9.7h-1.5v-12.03h1.53l6.92,9.5v-9.5h1.5v12.03h-1.44l-7.01-9.7Z"/><path d="M53.45,66.63c0-9.8,7.24-17.09,18.84-17.09,3.23,0,6.52.92,8.11,1.75l3.69-1.08.26,10.62h-1.28l-4.31-8.57c-1.33-.87-3.64-1.54-6.42-1.54-7.44,0-11.65,6.62-11.65,15.45,0,9.6,4.88,15.71,11.55,15.71,4.62,0,7.44-2.1,9.7-5.75l1.9-4.47h1.39l-1.54,9.55h-2.21c-1.9.82-6.11,1.8-9.6,1.8-11.04,0-18.43-6.62-18.43-16.37Z"/><path d="M88.86,81.51l1.49-.15c2.72-.21,3.28-1.08,3.44-4.62l.67-23.35c-.67-1.23-1.69-1.85-3.13-2.05l-1.85-.21-.15-.87h12.32l8.21,23.1h.15l8.37-23.1h12.37l-.15.87-2.77.21c-1.44.1-2.05.62-2.05,1.08l.56,25.46c.05,2.77.41,3.18,2.52,3.39l1.85.26.15.82h-15.76l.15-.82,2.52-.26c1.44-.15,1.85-.87,1.8-3.49l-.62-24.89h-.21l-10.78,29.15h-1.69l-10.16-27.97c-.1-.26-.46-.51-.51-.62l-.56,23.61c-.15,3.28.51,4.11,3.64,4.31l1.49.15.15.82h-11.6l.15-.82Z"/><path d="M136.69,81.51l2.1-.21c1.59-.15,2.26-.51,2.26-.92v-28.33c0-.41-.31-.56-2.67-.77l-1.69-.21-.15-.82h15.66l-.15.82-2.1.21c-1.69.15-2.26.56-2.26.92v28.33c0,.41.36.56,2.62.77l1.69.21.15.82h-15.6l.15-.82Z"/><path class="cls-1" d="M167.42,77.94l-.05-.26c7.79-7.27,15.88-13.1,15.88-19.96,0-4.9-3.71-8.3-8.72-8.3s-8.66,3.46-11.09,8.2l.41.52c2.01-3.04,4.33-4.64,7.32-4.64,3.35,0,6.19,2.32,6.19,6.86,0,6.44-5.16,11.29-14.39,20.21l.31,1.8h21.39l1.2-4.5-18.47.07Z"/><path class="cls-1" d="M189.15,69.36l1.29-5.21h13.87l.83-5.31h-14.59l-3.87,15.52c8.66.88,13.42,4.23,13.42,9.65,0,4.33-3.93,6.22-7.13,6.22-4.34,0-7.32-2.36-9.21-4.4l-1.13,4.5c2.68,1.19,6.2,2.24,9.63,2.24h.15c6.63-.11,12.74-5.43,12.74-11.7s-5.47-10.52-15.99-11.5Z"/></svg>